<?xml version="1.0" encoding="utf-8"?>
<!-- Generator: Adobe Illustrator 24.0.0, SVG Export Plug-In . SVG Version: 6.00 Build 0)  -->
<svg version="1.1" id="图层_1" xmlns="http://www.w3.org/2000/svg" xmlns:xlink="http://www.w3.org/1999/xlink" x="0px" y="0px"
	 viewBox="0 0 35 35" style="enable-background:new 0 0 35 35;" xml:space="preserve">
<g>
	<path d="M19.97,15.67l-2.26-1.25c-0.18-0.1-0.4-0.1-0.58,0l-2.26,1.25c-0.19,0.11-0.31,0.31-0.31,0.53v2.45
		c0,0.22,0.12,0.42,0.31,0.53l2.26,1.25c0.18,0.1,0.4,0.1,0.58,0l2.26-1.25c0.19-0.11,0.31-0.31,0.31-0.53V16.2
		C20.28,15.98,20.17,15.78,19.97,15.67z"/>
	<path d="M31.12,8.59L18.4,1.24c-0.56-0.32-1.25-0.32-1.81,0l-1.51,0.87v3.65v3.12v3.65l1.97-1.14c0.28-0.16,0.62-0.16,0.9,0
		l4.59,2.66c0.28,0.16,0.45,0.46,0.45,0.78v5.31c0,0.32-0.17,0.62-0.45,0.78l-4.59,2.66c-0.23,0.13-0.51,0.16-0.76,0.07l-4.81-2.77
		c-0.23-0.17-0.38-0.44-0.38-0.73v-4.09v-0.75l0,0V3.89L3.88,8.59c-0.56,0.32-0.9,0.92-0.9,1.56v14.7c0,0.64,0.34,1.24,0.9,1.56
		l12.72,7.35c0.56,0.32,1.25,0.32,1.81,0l12.72-7.35c0.56-0.32,0.9-0.92,0.9-1.56v-14.7C32.02,9.51,31.68,8.91,31.12,8.59z
		 M17.95,30.37c-0.28,0.16-0.62,0.16-0.9,0L6.59,24.32c-0.28-0.16-0.45-0.46-0.45-0.78V11.46c0-0.32,0.17-0.62,0.45-0.78l2.26-1.3
		v6.7h0v5.57c0,0.54,0.29,1.03,0.75,1.3l7.9,4.57l0.02-0.01l2.71,1.56L17.95,30.37z M28.86,23.54c0,0.32-0.17,0.62-0.45,0.78
		l-5.02,2.9l-2.71-1.56l4.72-2.73c0.47-0.27,0.75-0.77,0.75-1.3v-8.27c0-0.54-0.29-1.03-0.75-1.3l-7.16-4.14V4.8l10.17,5.87
		c0.28,0.16,0.45,0.46,0.45,0.78V23.54z"/>
</g>
</svg>
